REM DIRINDEX 1\8,1\2\11,1\3\12,1\3\14,1\5\15,1\5\16,1\6\17,1\6\18,1\4\19,1\4\20,1\4\21,1\4\22,1\7\23,1\7\24,1\7\25,1\2\9\26,1\2\9\27,1\2\10\28,1\2\10\29,1\2\10\30,1\2\10\31,1\2\10\32,1\3\13\33,1\3\13\34,1\3\13\35
REM DIRNAME cjc123,folder01,folder02,folder03,folder04,folder05,folder06,folder07,folder08,folder09,folder10,folder11,folder12,folder13,folder14,folder15,folder16,folder17,folder18,folder19,folder20,folder21,folder22,folder23,folder24,folder25,folder26,folder27,folder28,folder29,folder30,folder31,folder32,folder33,folder34
TITLE ""
FILE "137 137_—á•¶UNIT3_SET3.mp3" MP3
  TRACK 01 AUDIO
    TITLE "22:cjc123_3280"
    INDEX 01 00:00:00
  TRACK 02 AUDIO
    TITLE "0:"
    INDEX 01 00:02:51
  TRACK 03 AUDIO
    TITLE "19:cjc123_3281"
    INDEX 01 00:03:29
  TRACK 04 AUDIO
    TITLE "0:"
    INDEX 01 00:07:47
  TRACK 05 AUDIO
    TITLE "20:cjc123_3282"
    INDEX 01 00:08:11
  TRACK 06 AUDIO
    TITLE "0:"
    INDEX 01 00:11:74
  TRACK 07 AUDIO
    TITLE "21:cjc123_3283"
    INDEX 01 00:12:28
  TRACK 08 AUDIO
    TITLE "0:"
    INDEX 01 00:16:48
  TRACK 09 AUDIO
    TITLE "19:cjc123_3284"
    INDEX 01 00:17:25
  TRACK 10 AUDIO
    TITLE "0:"
    INDEX 01 00:21:51
  TRACK 11 AUDIO
    TITLE "20:cjc123_3285"
    INDEX 01 00:22:27
  TRACK 12 AUDIO
    TITLE "0:"
    INDEX 01 00:26:15
  TRACK 13 AUDIO
    TITLE "21:cjc123_3286"
    INDEX 01 00:26:48
  TRACK 14 AUDIO
    TITLE "0:"
    INDEX 01 00:31:00
  TRACK 15 AUDIO
    TITLE "19:cjc123_3287"
    INDEX 01 00:31:55
  TRACK 16 AUDIO
    TITLE "0:"
    INDEX 01 00:34:49
  TRACK 17 AUDIO
    TITLE "20:cjc123_3288"
    INDEX 01 00:35:14
  TRACK 18 AUDIO
    TITLE "0:"
    INDEX 01 00:38:53
  TRACK 19 AUDIO
    TITLE "21:cjc123_3289"
    INDEX 01 00:39:09
  TRACK 20 AUDIO
    TITLE "0:"
    INDEX 01 00:42:04
  TRACK 21 AUDIO
    TITLE "19:cjc123_3290"
    INDEX 01 00:42:51
  TRACK 22 AUDIO
    TITLE "0:"
    INDEX 01 00:47:01
  TRACK 23 AUDIO
    TITLE "20:cjc123_3291"
    INDEX 01 00:47:54
  TRACK 24 AUDIO
    TITLE "0:"
    INDEX 01 00:51:50
  TRACK 25 AUDIO
    TITLE "21:cjc123_3292"
    INDEX 01 00:52:08
  TRACK 26 AUDIO
    TITLE "0:"
    INDEX 01 00:56:33
  TRACK 27 AUDIO
    TITLE "19:cjc123_3293"
    INDEX 01 00:57:05
  TRACK 28 AUDIO
    TITLE "0:"
    INDEX 01 01:01:15
  TRACK 29 AUDIO
    TITLE "20:cjc123_3294"
    INDEX 01 01:01:48
  TRACK 30 AUDIO
    TITLE "0:"
    INDEX 01 01:05:09
  TRACK 31 AUDIO
    TITLE "21:cjc123_3295"
    INDEX 01 01:05:38
  TRACK 32 AUDIO
    TITLE "0:"
    INDEX 01 01:09:46
  TRACK 33 AUDIO
    TITLE "19:cjc123_3296"
    INDEX 01 01:10:22
  TRACK 34 AUDIO
    TITLE "0:"
    INDEX 01 01:15:52
  TRACK 35 AUDIO
    TITLE "20:cjc123_3297"
    INDEX 01 01:16:32
  TRACK 36 AUDIO
    TITLE "0:"
    INDEX 01 01:22:07
  TRACK 37 AUDIO
    TITLE "21:cjc123_3298"
    INDEX 01 01:22:41
  TRACK 38 AUDIO
    TITLE "0:"
    INDEX 01 01:27:73
  TRACK 39 AUDIO
    TITLE "19:cjc123_3299"
    INDEX 01 01:28:65
  TRACK 40 AUDIO
    TITLE "0:"
    INDEX 01 01:32:66
  TRACK 41 AUDIO
    TITLE "20:cjc123_3300"
    INDEX 01 01:33:23
  TRACK 42 AUDIO
    TITLE "0:"
    INDEX 01 01:37:09
  TRACK 43 AUDIO
    TITLE "21:cjc123_3301"
    INDEX 01 01:37:40
  TRACK 44 AUDIO
    TITLE "0:"
    INDEX 01 01:41:42
  TRACK 45 AUDIO
    TITLE "19:cjc123_3302"
    INDEX 01 01:42:22
  TRACK 46 AUDIO
    TITLE "0:"
    INDEX 01 01:46:25
  TRACK 47 AUDIO
    TITLE "20:cjc123_3303"
    INDEX 01 01:46:61
  TRACK 48 AUDIO
    TITLE "0:"
    INDEX 01 01:51:34
  TRACK 49 AUDIO
    TITLE "21:cjc123_3304"
    INDEX 01 01:51:64
  TRACK 50 AUDIO
    TITLE "0:"
    INDEX 01 01:55:67
  TRACK 51 AUDIO
    TITLE "19:cjc123_3305"
    INDEX 01 01:56:43
  TRACK 52 AUDIO
    TITLE "0:"
    INDEX 01 01:59:71
  TRACK 53 AUDIO
    TITLE "20:cjc123_3306"
    INDEX 01 02:00:37
  TRACK 54 AUDIO
    TITLE "0:"
    INDEX 01 02:04:29
  TRACK 55 AUDIO
    TITLE "21:cjc123_3307"
    INDEX 01 02:04:55
  TRACK 56 AUDIO
    TITLE "0:"
    INDEX 01 02:08:07
  TRACK 57 AUDIO
    TITLE "19:cjc123_3308"
    INDEX 01 02:08:60
  TRACK 58 AUDIO
    TITLE "0:"
    INDEX 01 02:13:28
  TRACK 59 AUDIO
    TITLE "20:cjc123_3309"
    INDEX 01 02:13:67
  TRACK 60 AUDIO
    TITLE "0:"
    INDEX 01 02:18:27
  TRACK 61 AUDIO
    TITLE "21:cjc123_3310"
    INDEX 01 02:18:55
  TRACK 62 AUDIO
    TITLE "0:"
    INDEX 01 02:23:25
  TRACK 63 AUDIO
    TITLE "19:cjc123_3311"
    INDEX 01 02:24:08
  TRACK 64 AUDIO
    TITLE "0:"
    INDEX 01 02:28:22
  TRACK 65 AUDIO
    TITLE "20:cjc123_3312"
    INDEX 01 02:28:73
  TRACK 66 AUDIO
    TITLE "0:"
    INDEX 01 02:33:19
  TRACK 67 AUDIO
    TITLE "21:cjc123_3313"
    INDEX 01 02:33:46
  TRACK 68 AUDIO
    TITLE "0:"
    INDEX 01 02:37:62
  TRACK 69 AUDIO
    TITLE "19:cjc123_3314"
    INDEX 01 02:38:52
  TRACK 70 AUDIO
    TITLE "0:"
    INDEX 01 02:42:32
  TRACK 71 AUDIO
    TITLE "20:cjc123_3315"
    INDEX 01 02:42:71
  TRACK 72 AUDIO
    TITLE "0:"
    INDEX 01 02:46:26
  TRACK 73 AUDIO
    TITLE "21:cjc123_3316"
    INDEX 01 02:46:55
  TRACK 74 AUDIO
    TITLE "0:"
    INDEX 01 02:50:37
  TRACK 75 AUDIO
    TITLE "19:cjc123_3317"
    INDEX 01 02:51:19
  TRACK 76 AUDIO
    TITLE "0:"
    INDEX 01 02:55:11
  TRACK 77 AUDIO
    TITLE "20:cjc123_3318"
    INDEX 01 02:55:56
  TRACK 78 AUDIO
    TITLE "0:"
    INDEX 01 02:59:54
  TRACK 79 AUDIO
    TITLE "21:cjc123_3319"
    INDEX 01 03:00:20
  TRACK 80 AUDIO
    TITLE "0:"
    INDEX 01 03:04:10
  TRACK 81 AUDIO
    TITLE "19:cjc123_3320"
    INDEX 01 03:04:61
  TRACK 82 AUDIO
    TITLE "0:"
    INDEX 01 03:09:13
  TRACK 83 AUDIO
    TITLE "20:cjc123_3321"
    INDEX 01 03:09:50
  TRACK 84 AUDIO
    TITLE "0:"
    INDEX 01 03:13:66
  TRACK 85 AUDIO
    TITLE "21:cjc123_3322"
    INDEX 01 03:14:18
  TRACK 86 AUDIO
    TITLE "0:"
    INDEX 01 03:18:45
  TRACK 87 AUDIO
    TITLE "19:cjc123_3323"
    INDEX 01 03:19:25
  TRACK 88 AUDIO
    TITLE "0:"
    INDEX 01 03:23:15
  TRACK 89 AUDIO
    TITLE "20:cjc123_3324"
    INDEX 01 03:23:50
  TRACK 90 AUDIO
    TITLE "0:"
    INDEX 01 03:28:32
  TRACK 91 AUDIO
    TITLE "21:cjc123_3325"
    INDEX 01 03:28:61
  TRACK 92 AUDIO
    TITLE "0:"
    INDEX 01 03:32:49
